# xmcd
#
# Track frame offsets:
# 150
# 16191
# 28148
# 39773
# 58087
# 69040
# 82322
# 98424
# 110761
# 125482
# 139138
#
# Disc length: 2180 seconds
#
# Revision: 0
# Processed by: cddbd v1.4PL0 Copyright (c) Steve Scherf et al.
# Submitted via: Audion 3.0.2 (http://www.panic.com/audion/)
#
DISCID=8c08820b
DTITLE=The Fashion - Rock Rock Kiss Kiss Combo
DYEAR=1900
DGENRE=
TTITLE0=Let's Go Dancing
TTITLE1=Not New in N.Y.
TTITLE2=Break Out Your Recorder
TTITLE3=Roller Disco Inferno
TTITLE4=Nation of Superstars
TTITLE5=Mix Tape
TTITLE6=Bonjour Mon Amie
TTITLE7=Boys and Girls
TTITLE8=Teenage Beats
TTITLE9=Riots in Technicolor
TTITLE10=Untitled
EXTD=
EXTT0=
EXTT1=
EXTT2=
EXTT3=
EXTT4=
EXTT5=
EXTT6=
EXTT7=
EXTT8=
EXTT9=
EXTT10=
PLAYORDER=
